<?xml version="1.0" encoding="UTF-8"?>
<svg width="102px" height="132px" viewBox="0 0 102 132" version="1.1" xmlns="http://www.w3.org/2000/svg" xmlns:xlink="http://www.w3.org/1999/xlink">
    <!-- Generator: Sketch 54 (76480) - https://sketchapp.com -->
    <title>Group 19</title>
    <desc>Created with Sketch.</desc>
    <defs>
        <polygon id="path-1" points="0 0 0 2.91621233 3.96991076 2.91621233 3.96991076 110.085017 0 110.085017 0 113 20.7059758 113 20.7059758 110.085017 16.7366724 110.085017 16.7366724 54.7667505 31.0595711 54.7667505 31.0595711 51.8505381 16.7366724 51.8505381 16.7366724 2.91621233 26.310377 2.91621233 26.310377 33.884137 39 33.884137 39 0"></polygon>
        <linearGradient x1="50%" y1="0%" x2="50%" y2="100%" id="linearGradient-3">
            <stop stop-color="#FFFFFF" offset="0%"></stop>
            <stop stop-color="#000000" offset="100%"></stop>
        </linearGradient>
        <path d="M18.7258513,0 L18.7258513,2.89986938 L22.8687773,2.89986938 L22.8687773,123.381097 C22.8687773,127.19562 21.2219269,129.101965 17.9288479,129.101965 L17.9288479,129.101965 C14.6886122,129.101965 13.0678727,127.19562 13.0678727,123.381097 L13.0678727,123.381097 L13.0678727,97.5225523 L0,97.5225523 L0,117.268933 C0,121.397104 1.64685038,124.845399 4.9417945,127.612595 L4.9417945,127.612595 C8.33993876,130.539366 12.6699927,132 17.9288479,132 L17.9288479,132 C23.1870813,132 27.5413811,130.539366 30.9960989,127.612595 L30.9960989,127.612595 C34.289178,124.845399 35.9360283,121.397104 35.9360283,117.268933 L35.9360283,117.268933 L35.9360283,2.89986938 L40,2.89986938 L40,0 L18.7258513,0 Z" id="path-4"></path>
        <path d="M5.15912931,4.74135627 C1.72050492,7.90246258 0,11.7360544 0,16.2439509 L0,16.2439509 L0,31.3982205 C0,36.6325711 1.34956764,41.3987894 4.05168472,45.698088 L4.05168472,45.698088 L19.7205049,70.4903058 C22.2156843,74.4797396 23.4656595,79.1155842 23.4656595,84.4008715 L23.4656595,84.4008715 L23.4656595,103.753173 C23.4656595,108.000928 21.6557002,110.125716 18.0375708,110.125716 L18.0375708,110.125716 C14.369347,110.125716 12.5349369,108.000928 12.5349369,103.753173 L12.5349369,103.753173 L12.5349369,78.805113 L0,78.805113 L0,96.7578683 C0,101.266371 1.72050492,105.099963 5.15912931,108.260463 L5.15912931,108.260463 C8.59954279,111.420963 12.8915615,113 18.0375708,113 L18.0375708,113 C23.1334857,113 27.4016499,111.420963 30.8408707,108.260463 L30.8408707,108.260463 C34.2806878,105.099963 36,101.266371 36,96.7578683 L36,96.7578683 L36,80.904432 C36,75.6191447 34.6492396,70.8274582 31.9501044,66.525734 L31.9501044,66.525734 L16.2806878,41.7353353 C13.7837193,37.7452951 12.5349369,33.1343125 12.5349369,27.9011747 L12.5349369,27.9011747 L12.5349369,9.24925275 C12.5349369,5.0008908 14.369347,2.87670983 18.0375708,2.87670983 L18.0375708,2.87670983 C21.6557002,2.87670983 23.4656595,5.0008908 23.4656595,9.24925275 L23.4656595,9.24925275 L23.4656595,34.1954934 L36,34.1954934 L36,16.2439509 C36,11.7360544 34.2806878,7.90246258 30.8408707,4.74135627 L30.8408707,4.74135627 C27.4016499,1.58085635 23.1334857,0 18.0375708,0 L18.0375708,0 C12.8915615,0 8.59954279,1.58085635 5.15912931,4.74135627" id="path-6"></path>
    </defs>
    <g id="Website" stroke="none" stroke-width="1" fill="none" fill-rule="evenodd">
        <g id="Landing" transform="translate(-648.000000, -2466.000000)">
            <g id="Group-19" transform="translate(648.000000, 2466.000000)">
                <g id="Group-152" transform="translate(0.000000, 19.000000)">
                    <mask id="mask-2" fill="white">
                        <use xlink:href="#path-1"></use>
                    </mask>
                    <g id="Clip-151"></g>
                    <polygon id="Fill-150" stroke="#FFFFFF" stroke-width="24" fill="url(#linearGradient-3)" mask="url(#mask-2)" points="0 0 0 2.91621233 3.96991076 2.91621233 3.96991076 110.085017 0 110.085017 0 113 20.7059758 113 20.7059758 110.085017 16.7366724 110.085017 16.7366724 54.7667505 31.0595711 54.7667505 31.0595711 51.8505381 16.7366724 51.8505381 16.7366724 2.91621233 26.310377 2.91621233 26.310377 33.884137 39 33.884137 39 0"></polygon>
                </g>
                <g id="Group-155" transform="translate(24.000000, 0.000000)">
                    <mask id="mask-5" fill="white">
                        <use xlink:href="#path-4"></use>
                    </mask>
                    <g id="Clip-154"></g>
                    <path d="M18.7258513,0 L18.7258513,2.89986938 L22.8687773,2.89986938 L22.8687773,123.381097 C22.8687773,127.19562 21.2219269,129.101965 17.9288479,129.101965 L17.9288479,129.101965 C14.6886122,129.101965 13.0678727,127.19562 13.0678727,123.381097 L13.0678727,123.381097 L13.0678727,97.5225523 L0,97.5225523 L0,117.268933 C0,121.397104 1.64685038,124.845399 4.9417945,127.612595 L4.9417945,127.612595 C8.33993876,130.539366 12.6699927,132 17.9288479,132 L17.9288479,132 C23.1870813,132 27.5413811,130.539366 30.9960989,127.612595 L30.9960989,127.612595 C34.289178,124.845399 35.9360283,121.397104 35.9360283,117.268933 L35.9360283,117.268933 L35.9360283,2.89986938 L40,2.89986938 L40,0 L18.7258513,0 Z" id="Fill-153" stroke="#FFFFFF" stroke-width="24" fill="#A67C00" mask="url(#mask-5)"></path>
                </g>
                <g id="Group-158" transform="translate(66.000000, 18.000000)">
                    <mask id="mask-7" fill="white">
                        <use xlink:href="#path-6"></use>
                    </mask>
                    <g id="Clip-157"></g>
                    <path d="M5.15912931,4.74135627 C1.72050492,7.90246258 0,11.7360544 0,16.2439509 L0,16.2439509 L0,31.3982205 C0,36.6325711 1.34956764,41.3987894 4.05168472,45.698088 L4.05168472,45.698088 L19.7205049,70.4903058 C22.2156843,74.4797396 23.4656595,79.1155842 23.4656595,84.4008715 L23.4656595,84.4008715 L23.4656595,103.753173 C23.4656595,108.000928 21.6557002,110.125716 18.0375708,110.125716 L18.0375708,110.125716 C14.369347,110.125716 12.5349369,108.000928 12.5349369,103.753173 L12.5349369,103.753173 L12.5349369,78.805113 L0,78.805113 L0,96.7578683 C0,101.266371 1.72050492,105.099963 5.15912931,108.260463 L5.15912931,108.260463 C8.59954279,111.420963 12.8915615,113 18.0375708,113 L18.0375708,113 C23.1334857,113 27.4016499,111.420963 30.8408707,108.260463 L30.8408707,108.260463 C34.2806878,105.099963 36,101.266371 36,96.7578683 L36,96.7578683 L36,80.904432 C36,75.6191447 34.6492396,70.8274582 31.9501044,66.525734 L31.9501044,66.525734 L16.2806878,41.7353353 C13.7837193,37.7452951 12.5349369,33.1343125 12.5349369,27.9011747 L12.5349369,27.9011747 L12.5349369,9.24925275 C12.5349369,5.0008908 14.369347,2.87670983 18.0375708,2.87670983 L18.0375708,2.87670983 C21.6557002,2.87670983 23.4656595,5.0008908 23.4656595,9.24925275 L23.4656595,9.24925275 L23.4656595,34.1954934 L36,34.1954934 L36,16.2439509 C36,11.7360544 34.2806878,7.90246258 30.8408707,4.74135627 L30.8408707,4.74135627 C27.4016499,1.58085635 23.1334857,0 18.0375708,0 L18.0375708,0 C12.8915615,0 8.59954279,1.58085635 5.15912931,4.74135627" id="Fill-156" stroke="#FFFFFF" stroke-width="24" mask="url(#mask-7)"></path>
                </g>
            </g>
        </g>
    </g>
</svg>