<?xml version="1.0" encoding="UTF-8"?>
<svg width="115px" height="102px" viewBox="0 0 115 102" version="1.1" xmlns="http://www.w3.org/2000/svg" xmlns:xlink="http://www.w3.org/1999/xlink">
    <!-- Generator: Sketch 53.2 (72643) - https://sketchapp.com -->
    <title>Group</title>
    <desc>Created with Sketch.</desc>
    <g id="Website" stroke="none" stroke-width="1" fill="none" fill-rule="evenodd">
        <g id="Landing" transform="translate(-181.000000, -1077.000000)">
            <g id="Group" transform="translate(182.000000, 1078.000000)">
                <g id="identity-3090_840ec69d-d938-48cc-90ef-b791e94b1429">
                    <polygon id="Path" fill="#FFFFFF" fill-rule="nonzero" points="86.6666667 10.7142857 86.6666667 21.4285714 73.3333333 21.4285714 73.3333333 10.7142857 26.6666667 10.7142857 26.6666667 21.4285714 13.3333333 21.4285714 13.3333333 10.7142857 0 10.7142857 0 100 100 100 100 10.7142857"></polygon>
                    <path d="M53.3333333,76.6071429 C60,75 60,72.5 60,70.7142857 L60,68.0357143 C56.8493798,64.8351106 55.0960604,60.3654417 55.1666667,55.7142857 L55.1666667,47.6785714 C55.8711811,41.3970362 60.8450557,36.6699369 66.75,36.6699369 C72.6549443,36.6699369 77.6288189,41.3970362 78.3333333,47.6785714 L78.3333333,55.7142857 C78.3609303,60.3926716 76.5454575,64.8665153 73.3333333,68.0357143 L73.3333333,70.7142857 C73.3333333,72.3214286 73.3333333,75 80.1666667,76.6071429 C87,78.2142857 86.6666667,85.7142857 86.6666667,85.7142857 L46.6666667,85.7142857 C46.5712628,81.3613998 49.3649237,77.5450594 53.3333333,76.6071429 L53.3333333,76.6071429 Z" id="Path" fill="#C9C9C9" fill-rule="nonzero"></path>
                    <path d="M13.3333333,0 L31.5151515,0 L31.5151515,21.4285714 L13.3333333,21.4285714 L13.3333333,0 Z M95.1515152,0 L113.333333,0 L113.333333,21.4285714 L95.1515152,21.4285714 L95.1515152,0 Z" id="Shape" fill="#B7B7B7" fill-rule="nonzero"></path>
                    <path d="M80,21.4285714 L80,26.7857143 L68.3333333,26.7857143 L68.3333333,10.7142857 L73.3333333,10.7142857 L73.3333333,21.4285714 L80,21.4285714 Z M20,21.4285714 L20,28.5714286 L10,28.5714286 L10,94.6428571 L100,94.6428571 L100,100 L0,100 L0,10.7142857 L13.3333333,10.7142857 L13.3333333,21.4285714 L20,21.4285714 Z" id="Shape" fill="#000064" fill-rule="nonzero" opacity="0.15"></path>
                    <path d="M53.3333333,76.6071429 C60,75 60,72.5 60,70.7142857 L60,68.0357143 C56.8493798,64.8351106 55.0960604,60.3654417 55.1666667,55.7142857 L55.1666667,47.6785714 C55.8711811,41.3970362 60.8450557,36.6699369 66.75,36.6699369 C72.6549443,36.6699369 77.6288189,41.3970362 78.3333333,47.6785714 L78.3333333,55.7142857 C78.3609303,60.3926716 76.5454575,64.8665153 73.3333333,68.0357143 L73.3333333,70.7142857 C73.3333333,72.3214286 73.3333333,75 80.1666667,76.6071429 C87,78.2142857 86.6666667,85.7142857 86.6666667,85.7142857 L46.6666667,85.7142857 C46.5712628,81.3613998 49.3649237,77.5450594 53.3333333,76.6071429 L53.3333333,76.6071429 Z" id="Path" stroke="#4C4C4C" stroke-linecap="round" stroke-linejoin="round"></path>
                    <path d="M13.3333333,10.7142857 L0,10.7142857 L0,100 L100,100 L100,10.7142857 L86.6666667,10.7142857 M26.6666667,10.7142857 L73.3333333,10.7142857" id="Shape" stroke="#4C4C4C" stroke-linecap="round" stroke-linejoin="round"></path>
                    <path d="M13.3333333,0 L31.5151515,0 L31.5151515,21.4285714 L13.3333333,21.4285714 L13.3333333,0 Z M95.1515152,0 L113.333333,0 L113.333333,21.4285714 L95.1515152,21.4285714 L95.1515152,0 Z M49.6969697,37.5 L13.3333333,37.5 L49.6969697,37.5 Z M36.0606061,51.7857143 L13.3333333,51.7857143 L36.0606061,51.7857143 Z M45.1515152,66.0714286 L13.3333333,66.0714286 L45.1515152,66.0714286 Z" id="Shape" stroke="#4C4C4C" stroke-linecap="round" stroke-linejoin="round"></path>
                </g>
            </g>
        </g>
    </g>
</svg>