<?xml version="1.0" encoding="UTF-8"?>
<svg width="195px" height="144px" viewBox="0 0 195 144" version="1.1" xmlns="http://www.w3.org/2000/svg" xmlns:xlink="http://www.w3.org/1999/xlink">
    <!-- Generator: Sketch 54.1 (76490) - https://sketchapp.com -->
    <title>Group 21</title>
    <desc>Created with Sketch.</desc>
    <g id="Website" stroke="none" stroke-width="1" fill="none" fill-rule="evenodd">
        <g id="Group-21">
            <g id="Group-22">
                <path d="M121.687892,144 C170.161031,144 175.536764,138.170401 175.536764,89.010989 C175.536764,64.7013287 206.159102,42.4375617 190.582772,26.3736264 C174.66038,9.95279627 112.271227,0 87.7683818,0 C70.5467242,0 61.0677609,24.0124717 47.5137105,32.7032967 C22.9176952,48.4742033 0,57.3170556 0,89.010989 C0,138.170401 73.214753,144 121.687892,144 Z" id="Oval" fill="#FFFFFF"></path>
                <path d="M116.598394,130 C155.874066,130 160.229788,125.303934 160.229788,85.7032967 C160.229788,66.1205148 185.041734,48.1858136 172.420913,35.2454212 C159.519693,22.0175303 108.968481,14 89.114894,14 C75.1609355,14 67.4805448,33.34338 56.4982885,40.3443223 C36.5692095,53.0486638 18,60.1720726 18,85.7032967 C18,125.303934 77.322723,130 116.598394,130 Z" id="Oval" stroke="#4A65C5" stroke-width="2" fill="#FFFFFF"></path>
                <path d="M112.012735,115 C141.096618,115 144.322058,111.518434 144.322058,82.1593407 C144.322058,67.6410713 162.695461,54.3446549 153.349663,44.7509158 C143.796228,34.9440311 106.362736,29 91.6610291,29 C81.3280345,29 75.6406566,43.3407817 67.5082263,48.5311355 C52.7506171,57.9498714 39,63.2310193 39,82.1593407 C39,111.518434 82.9288518,115 112.012735,115 Z" id="Oval" stroke="#4A65C5" stroke-width="2" fill="#FFFFFF"></path>
                <path d="M105.810712,97 C122.465585,97 124.312632,95.0163169 124.312632,78.2884615 C124.312632,70.0164244 134.834153,62.4405592 129.482286,56.974359 C124.011515,51.3867154 102.575242,48 94.1563158,48 C88.2391309,48 84.9822563,56.1709105 80.3252236,59.1282051 C71.874285,64.4946942 64,67.5037203 64,78.2884615 C64,95.0163169 89.1558382,97 105.810712,97 Z" id="Oval" stroke="#4A65C5" stroke-width="2" fill="#4A65C5"></path>
            </g>
        </g>
    </g>
</svg> 