<?xml version="1.0" encoding="UTF-8"?>
<svg width="1418px" height="663px" viewBox="0 0 1418 663" version="1.1" xmlns="http://www.w3.org/2000/svg" xmlns:xlink="http://www.w3.org/1999/xlink">
    <!-- Generator: Sketch 53.2 (72643) - https://sketchapp.com -->
    <title>Group 17</title>
    <desc>Created with Sketch.</desc>
    <defs>
        <filter x="-42.9%" y="-42.9%" width="185.7%" height="185.7%" filterUnits="objectBoundingBox" id="filter-1">
            <feGaussianBlur stdDeviation="1" in="SourceGraphic"></feGaussianBlur>
        </filter>
        <filter x="-42.9%" y="-42.9%" width="185.7%" height="185.7%" filterUnits="objectBoundingBox" id="filter-2">
            <feGaussianBlur stdDeviation="1" in="SourceGraphic"></feGaussianBlur>
        </filter>
        <filter x="-42.9%" y="-42.9%" width="185.7%" height="185.7%" filterUnits="objectBoundingBox" id="filter-3">
            <feGaussianBlur stdDeviation="1" in="SourceGraphic"></feGaussianBlur>
        </filter>
        <filter x="-42.9%" y="-42.9%" width="185.7%" height="185.7%" filterUnits="objectBoundingBox" id="filter-4">
            <feGaussianBlur stdDeviation="1" in="SourceGraphic"></feGaussianBlur>
        </filter>
        <filter x="-42.9%" y="-42.9%" width="185.7%" height="185.7%" filterUnits="objectBoundingBox" id="filter-5">
            <feGaussianBlur stdDeviation="1" in="SourceGraphic"></feGaussianBlur>
        </filter>
        <filter x="-42.9%" y="-42.9%" width="185.7%" height="185.7%" filterUnits="objectBoundingBox" id="filter-6">
            <feGaussianBlur stdDeviation="1" in="SourceGraphic"></feGaussianBlur>
        </filter>
        <filter x="-60.0%" y="-60.0%" width="220.0%" height="220.0%" filterUnits="objectBoundingBox" id="filter-7">
            <feGaussianBlur stdDeviation="1" in="SourceGraphic"></feGaussianBlur>
        </filter>
        <linearGradient x1="78.9081112%" y1="22.4935092%" x2="0%" y2="95.125%" id="linearGradient-8">
            <stop stop-color="#FF0600" offset="0%"></stop>
            <stop stop-color="#F27E7C" offset="100%"></stop>
        </linearGradient>
        <linearGradient x1="-6.58264829%" y1="110.129082%" x2="68.1504114%" y2="27.8473083%" id="linearGradient-9">
            <stop stop-color="#FFFCDD" offset="0%"></stop>
            <stop stop-color="#FFF8B9" offset="100%"></stop>
        </linearGradient>
        <linearGradient x1="0%" y1="98.7855688%" x2="55.3279867%" y2="44.8147487%" id="linearGradient-10">
            <stop stop-color="#FCC5A0" offset="0%"></stop>
            <stop stop-color="#F89367" offset="100%"></stop>
        </linearGradient>
        <circle id="path-11" cx="719.5" cy="51.5" r="2.5"></circle>
        <filter x="-560.0%" y="-520.0%" width="1220.0%" height="1220.0%" filterUnits="objectBoundingBox" id="filter-12">
            <feGaussianBlur stdDeviation="0" in="SourceGraphic"></feGaussianBlur>
        </filter>
        <filter x="-860.0%" y="-820.0%" width="1820.0%" height="1820.0%" filterUnits="objectBoundingBox" id="filter-13">
            <feOffset dx="0" dy="2" in="SourceAlpha" result="shadowOffsetOuter1"></feOffset>
            <feGaussianBlur stdDeviation="14" in="shadowOffsetOuter1" result="shadowBlurOuter1"></feGaussianBlur>
            <feColorMatrix values="0 0 0 0 1   0 0 0 0 1   0 0 0 0 1  0 0 0 0.5 0" type="matrix" in="shadowBlurOuter1"></feColorMatrix>
        </filter>
    </defs>
    <g id="Website" stroke="none" stroke-width="1" fill="none" fill-rule="evenodd">
        <g id="Landing" transform="translate(-22.000000, -3738.000000)">
            <g id="Group-16" transform="translate(-1.000000, 3738.000000)">
                <g id="Group-17" transform="translate(21.000000, 0.000000)">
                    <g id="Group-5">
                        <ellipse id="Oval" fill="#4A65C5" cx="730.5" cy="347.5" rx="341.5" ry="309.5"></ellipse>
                        <ellipse id="Oval" fill="#FFFFFF" opacity="0.0412713914" cx="727.5" cy="347.5" rx="256.5" ry="240.5"></ellipse>
                        <ellipse id="Oval" fill="#FFFFFF" opacity="0.10811942" cx="727.5" cy="347" rx="145.5" ry="136"></ellipse>
                        <g id="Group" transform="translate(994.000000, 236.000000)">
                            <circle id="Oval" fill="#FFFFFF" opacity="0.112537202" cx="20.5" cy="20.5" r="20.5"></circle>
                            <g id="Orion_star" transform="translate(20.499127, 20.471991) rotate(30.000000) translate(-20.499127, -20.471991) translate(7.999127, 8.971991)">
                                <polygon id="Path" fill="#FFDDA4" points="12.0825114 17.4826855 4.69106557 22.7302142 7.53754752 14.2708393 0.124178072 8.99622407 9.27349891 8.99622407 12.0825114 0.603230095 14.8907267 8.99622407 24.0408447 8.99622407 16.6258808 14.2708393 19.4723628 22.7302142"></polygon>
                                <polygon id="Path" fill="#000064" opacity="0.1" points="9.53819454 9.18228493 0.127464544 9.18228493 7.75264454 14.4569001 4.82483454 22.9162751 12.4274645 17.6687463 12.4274645 0.789290949"></polygon>
                            </g>
                        </g>
                        <g id="Group" transform="translate(811.000000, 76.000000)">
                            <circle id="Oval" fill="#FFFFFF" opacity="0.112537202" cx="12.5" cy="12.5" r="12.5"></circle>
                            <g id="Orion_star" transform="translate(12.399952, 12.411384) rotate(30.000000) translate(-12.399952, -12.411384) translate(4.899952, 5.411384)">
                                <polygon id="Path" fill="#FFDDA4" points="7.367385 10.6601741 2.86040584 13.8598867 4.59606556 8.70173127 0.0757183366 5.48550248 5.6545725 5.48550248 7.367385 0.367823229 9.07971139 5.48550248 14.6590517 5.48550248 10.1377322 8.70173127 11.8733919 13.8598867"></polygon>
                                <polygon id="Path" fill="#000064" opacity="0.1" points="5.81597228 5.59895422 0.0777222831 5.59895422 4.72722228 8.81518301 2.94197228 13.9733385 7.57772228 10.7736258 7.57772228 0.481274969"></polygon>
                            </g>
                        </g>
                        <g id="Group" transform="translate(462.000000, 188.000000)">
                            <circle id="Oval" fill="#FFFFFF" opacity="0.112537202" cx="12.5" cy="12.5" r="12.5"></circle>
                            <g id="Orion_star" transform="translate(12.399952, 12.411384) rotate(30.000000) translate(-12.399952, -12.411384) translate(4.899952, 5.411384)">
                                <polygon id="Path" fill="#FFDDA4" points="7.367385 10.6601741 2.86040584 13.8598867 4.59606556 8.70173127 0.0757183366 5.48550248 5.6545725 5.48550248 7.367385 0.367823229 9.07971139 5.48550248 14.6590517 5.48550248 10.1377322 8.70173127 11.8733919 13.8598867"></polygon>
                                <polygon id="Path" fill="#000064" opacity="0.1" points="5.81597228 5.59895422 0.0777222831 5.59895422 4.72722228 8.81518301 2.94197228 13.9733385 7.57772228 10.7736258 7.57772228 0.481274969"></polygon>
                            </g>
                        </g>
                        <g id="Group" transform="translate(419.000000, 341.000000)">
                            <circle id="Oval" fill="#FFFFFF" opacity="0.112537202" cx="12.5" cy="12.5" r="12.5"></circle>
                            <g id="Orion_star" transform="translate(12.399952, 12.411384) rotate(30.000000) translate(-12.399952, -12.411384) translate(4.899952, 5.411384)">
                                <polygon id="Path" fill="#FFDDA4" points="7.367385 10.6601741 2.86040584 13.8598867 4.59606556 8.70173127 0.0757183366 5.48550248 5.6545725 5.48550248 7.367385 0.367823229 9.07971139 5.48550248 14.6590517 5.48550248 10.1377322 8.70173127 11.8733919 13.8598867"></polygon>
                                <polygon id="Path" fill="#000064" opacity="0.1" points="5.81597228 5.59895422 0.0777222831 5.59895422 4.72722228 8.81518301 2.94197228 13.9733385 7.57772228 10.7736258 7.57772228 0.481274969"></polygon>
                            </g>
                        </g>
                        <circle id="Oval" fill="#FFFFFF" opacity="0.405761719" filter="url(#filter-1)" cx="506.5" cy="192.5" r="3.5"></circle>
                        <circle id="Oval" fill="#FFFFFF" opacity="0.405761719" filter="url(#filter-2)" cx="646.5" cy="427.5" r="3.5"></circle>
                        <circle id="Oval" fill="#FFFFFF" opacity="0.405761719" filter="url(#filter-3)" cx="927.5" cy="440.5" r="3.5"></circle>
                        <circle id="Oval" fill="#FFFFFF" opacity="0.405761719" filter="url(#filter-4)" cx="894.5" cy="277.5" r="3.5"></circle>
                        <circle id="Oval" fill="#FFFFFF" opacity="0.405761719" filter="url(#filter-5)" cx="939.5" cy="167.5" r="3.5"></circle>
                        <circle id="Oval" fill="#FFFFFF" opacity="0.405761719" filter="url(#filter-6)" cx="1038.5" cy="357.5" r="3.5"></circle>
                        <circle id="Oval" fill="#FFFFFF" opacity="0.405761719" filter="url(#filter-7)" cx="655.5" cy="76.5" r="2.5"></circle>
                        <g id="Group" transform="translate(621.000000, 265.000000)">
                            <circle id="Oval" fill="#FFFFFF" opacity="0.112537202" cx="12.5" cy="12.5" r="12.5"></circle>
                            <g id="Orion_star" transform="translate(12.399952, 12.411384) rotate(30.000000) translate(-12.399952, -12.411384) translate(4.899952, 5.411384)">
                                <polygon id="Path" fill="#FFDDA4" points="7.367385 10.6601741 2.86040584 13.8598867 4.59606556 8.70173127 0.0757183366 5.48550248 5.6545725 5.48550248 7.367385 0.367823229 9.07971139 5.48550248 14.6590517 5.48550248 10.1377322 8.70173127 11.8733919 13.8598867"></polygon>
                                <polygon id="Path" fill="#000064" opacity="0.1" points="5.81597228 5.59895422 0.0777222831 5.59895422 4.72722228 8.81518301 2.94197228 13.9733385 7.57772228 10.7736258 7.57772228 0.481274969"></polygon>
                            </g>
                        </g>
                        <g id="moon" transform="translate(494.000000, 75.000000)">
                            <circle id="Oval" fill="#FDC869" cx="39.5" cy="39.5" r="39.5"></circle>
                            <g id="Group" opacity="0.15" transform="translate(17.000000, 5.000000)" fill="#FFFFFF">
                                <ellipse id="Oval" cx="7.36348936" cy="35.6432075" rx="7.25531915" ry="7.9245283"></ellipse>
                                <ellipse id="Oval" cx="20.4468085" cy="7.9245283" rx="7.25531915" ry="7.9245283"></ellipse>
                                <ellipse id="Oval" cx="54.7446809" cy="35.6603774" rx="7.25531915" ry="7.9245283"></ellipse>
                                <ellipse id="Oval" cx="36.2765957" cy="62.0754717" rx="7.25531915" ry="7.9245283"></ellipse>
                            </g>
                        </g>
                        <g id="planet" transform="translate(548.000000, 324.000000)">
                            <circle id="Oval" fill="#52DBE5" cx="17" cy="17" r="17"></circle>
                            <path d="M16.3265295,11.8684401 C18.2508353,13.1626967 20.8543078,12.2726095 20.8543078,8.99466443 C20.8543078,6.52677312 17.4584741,7.93707839 17.4584741,5.56465567 C17.4393805,4.98356965 17.6560921,4.4198181 18.0584047,4.00400168 L18.052745,4 L1,21.2243607 C2.71832477,28.0294072 8.36816552,33.0902534 15.2625016,34 L20.2753181,28.9373071 L20.2753181,28.9293037 C19.8337387,29.3823245 19.2183601,29.6180499 18.5904186,29.574717 C17.480547,29.574717 16.070144,26.0783948 16.3265295,25.001372 C16.5829149,23.9243493 16.5574462,23.0731354 15.8313037,22.6426693 C15.1051613,22.2122032 14.8131196,21.8571973 14.232432,20.2565265 C13.5317583,18.3185716 12.0517408,19.8672205 10.4296643,19.9135257 C8.80758768,19.9598308 7.29927154,16.2817181 9.56316068,13.0889516 C11.8270498,9.89618507 14.4056196,10.5741835 16.3265295,11.8684401 Z M28.5424753,11.1098365 C27.2548237,12.4501224 25.4793095,13.1983467 23.6304018,13.1798468 C21.9217315,13.2232936 22.7763497,14.171691 23.075183,15.0783566 C23.2687455,15.6626015 23.2693115,16.0501925 23.8160408,16.407485 L32,8.14116392 C30.7180728,8.14116392 29.9528782,9.59777431 28.5424753,11.1098365 L28.5424753,11.1098365 Z" id="Shape" fill="#19ADD4" fill-rule="nonzero"></path>
                        </g>
                        <g id="Group-2" transform="translate(936.000000, 97.000000)">
                            <g id="planet-2" transform="translate(1.000000, 0.000000)" fill="#17AED3">
                                <g id="planet">
                                    <circle id="Oval" cx="52" cy="52" r="52"></circle>
                                </g>
                            </g>
                            <g id="planet" transform="translate(0.000000, 30.000000)" fill="#57E2E1">
                                <path d="M75.791664,37.3777901 C96.9498282,37.3777901 98.8648616,52.1608286 100.471198,44.4893336 C100.691376,43.4378125 101.408985,40.9964536 102.210018,37.9594954 C103.497288,33.0790717 105,26.660523 105,22 C105,-6.71880699 78.718807,2 50,2 C28.4931126,2 3.49202111,11.2419557 1,29.0548638 C0.164348824,35.0280787 6.41211636,46.1766038 10.0739899,51 C13.8274717,55.944062 16.8686418,61.1309682 20.4041917,62.2984963 C36.6451683,67.661678 52.2070637,37.3777901 75.791664,37.3777901 Z" id="Oval"></path>
                            </g>
                        </g>
                        <g id="Group-7" transform="translate(0.000000, 347.000000)">
                            <path d="M795.84972,46.6871258 C785.928364,25.466733 762.580031,13.0613797 738.533408,16.2340266 C714.486786,19.4066735 695.509127,37.3964045 691.946383,60.3958534 C678.656213,56.5370402 664.238142,60.4798885 655.077975,70.4780997 C645.917808,80.4763108 643.708429,94.6821217 649.428378,106.803739 C655.148328,118.925356 667.740505,126.722591 681.6278,126.742027 L797.458479,126.742027 C820.559305,126.742027 839.286225,108.803878 839.286225,86.6760513 C839.286225,64.5482241 820.559305,46.6100758 797.458479,46.6100758 C796.917936,46.6100758 796.390263,46.6686338 795.84972,46.6871258 Z" id="Path" fill="#D3DDFF" transform="translate(742.786225, 71.242027) rotate(-3.000000) translate(-742.786225, -71.242027) "></path>
                            <path d="M493.616953,62.5815588 C486.677144,47.0964073 470.345409,38.0438522 453.525232,40.3590269 C436.705055,42.6742017 423.430528,55.8018433 420.938453,72.5852249 C411.64222,69.7693342 401.557041,72.6465478 395.14967,79.9425397 C388.742299,87.2385317 387.196879,97.6049342 391.197879,106.450439 C395.19888,115.295943 404.00688,120.985817 413.720791,121 L494.742251,121 C510.900859,121 524,107.91 524,91.7626666 C524,75.6153332 510.900859,62.5253332 494.742251,62.5253332 C494.364151,62.5253332 493.995053,62.5680646 493.616953,62.5815588 Z" id="Path" fill="#D3DDFF"></path>
                            <path d="M365.58497,76.24447 C357.2572,53.3035048 337.659117,39.892312 317.474905,43.3222006 C297.290693,46.7520891 281.36126,66.200447 278.37077,91.0647161 C267.21529,86.8930262 255.113076,91.1555648 247.424231,101.964442 C239.735386,112.773319 237.880881,128.130952 242.682082,141.235403 C247.483283,154.339854 258.052883,162.769297 269.709576,162.790309 L366.935328,162.790309 C386.325658,162.790309 402.044627,143.397716 402.044627,119.475741 C402.044627,95.5537655 386.325658,76.1611728 366.935328,76.1611728 C366.481607,76.1611728 366.03869,76.2244787 365.58497,76.24447 Z" id="Path" fill="#F7F9FC" transform="translate(321.044627, 102.790309) rotate(-2.000000) translate(-321.044627, -102.790309) "></path>
                            <path d="M365.58497,76.24447 C357.2572,53.3035048 337.659117,39.892312 317.474905,43.3222006 C297.290693,46.7520891 281.36126,66.200447 278.37077,91.0647161 C267.21529,86.8930262 255.113076,91.1555648 247.424231,101.964442 C239.735386,112.773319 237.880881,128.130952 242.682082,141.235403 C247.483283,154.339854 258.052883,162.769297 269.709576,162.790309 L366.935328,162.790309 C386.325658,162.790309 402.044627,143.397716 402.044627,119.475741 C402.044627,95.5537655 386.325658,76.1611728 366.935328,76.1611728 C366.481607,76.1611728 366.03869,76.2244787 365.58497,76.24447 Z" id="Path" fill="#F7F9FC" transform="translate(321.044627, 102.790309) rotate(-2.000000) translate(-321.044627, -102.790309) "></path>
                            <path d="M218.58497,107.24447 C210.2572,84.3035048 190.659117,70.892312 170.474905,74.3222006 C150.290693,77.7520891 134.36126,97.200447 131.37077,122.064716 C120.21529,117.893026 108.113076,122.155565 100.424231,132.964442 C92.7353856,143.773319 90.880881,159.130952 95.6820821,172.235403 C100.483283,185.339854 111.052883,193.769297 122.709576,193.790309 L219.935328,193.790309 C239.325658,193.790309 255.044627,174.397716 255.044627,150.475741 C255.044627,126.553765 239.325658,107.161173 219.935328,107.161173 C219.481607,107.161173 219.03869,107.224479 218.58497,107.24447 Z" id="Path" fill="#F7F9FC" transform="translate(174.044627, 133.790309) rotate(-2.000000) translate(-174.044627, -133.790309) "></path>
                            <path d="M127.58497,139.24447 C119.2572,116.303505 99.659117,102.892312 79.4749052,106.322201 C59.2906934,109.752089 43.36126,129.200447 40.3707699,154.064716 C29.2152903,149.893026 17.1130756,154.155565 9.42423064,164.964442 C1.73538565,175.773319 -0.119118969,191.130952 4.68208207,204.235403 C9.4832831,217.339854 20.0528828,225.769297 31.7095759,225.790309 L128.935328,225.790309 C148.325658,225.790309 164.044627,206.397716 164.044627,182.475741 C164.044627,158.553765 148.325658,139.161173 128.935328,139.161173 C128.481607,139.161173 128.03869,139.224479 127.58497,139.24447 Z" id="Path" fill="#F7F9FC" transform="translate(83.044627, 165.790309) rotate(-2.000000) translate(-83.044627, -165.790309) "></path>
                            <path d="M417.58497,36.24447 C409.2572,13.3035048 389.659117,-0.107687953 369.474905,3.32220059 C349.290693,6.75208914 333.36126,26.200447 330.37077,51.0647161 C319.21529,46.8930262 307.113076,51.1555648 299.424231,61.9644418 C291.735386,72.7733187 289.880881,88.1309521 294.682082,101.235403 C299.483283,114.339854 310.052883,122.769297 321.709576,122.790309 L418.935328,122.790309 C438.325658,122.790309 454.044627,103.397716 454.044627,79.4757408 C454.044627,55.5537655 438.325658,36.1611728 418.935328,36.1611728 C418.481607,36.1611728 418.03869,36.2244787 417.58497,36.24447 Z" id="Path" fill="#F7F9FC" transform="translate(373.044627, 62.790309) rotate(-2.000000) translate(-373.044627, -62.790309) "></path>
                            <path d="M519.200844,125.931281 C512.261035,110.44613 495.9293,101.393575 479.109123,103.708749 C462.288947,106.023924 449.014419,119.151566 446.522344,135.934947 C437.226111,133.119057 427.140932,135.99627 420.733561,143.292262 C414.32619,150.588254 412.78077,160.954657 416.781771,169.800161 C420.782771,178.645666 429.590771,184.33554 439.304682,184.349722 L520.326142,184.349722 C536.484751,184.349722 549.583891,171.259722 549.583891,155.112389 C549.583891,138.965056 536.484751,125.875056 520.326142,125.875056 C519.948042,125.875056 519.578944,125.917787 519.200844,125.931281 Z" id="Path" fill="#F7F9FC" transform="translate(482.083891, 143.849722) rotate(41.000000) translate(-482.083891, -143.849722) "></path>
                            <path d="M591.616953,62.5815588 C584.677144,47.0964073 568.345409,38.0438522 551.525232,40.3590269 C534.705055,42.6742017 521.430528,55.8018433 518.938453,72.5852249 C509.64222,69.7693342 499.557041,72.6465478 493.14967,79.9425397 C486.742299,87.2385317 485.196879,97.6049342 489.197879,106.450439 C493.19888,115.295943 502.00688,120.985817 511.720791,121 L592.742251,121 C608.900859,121 622,107.91 622,91.7626666 C622,75.6153332 608.900859,62.5253332 592.742251,62.5253332 C592.364151,62.5253332 591.995053,62.5680646 591.616953,62.5815588 Z" id="Path" fill="#D3DDFF"></path>
                            <path d="M669.616953,67.5815588 C662.677144,52.0964073 646.345409,43.0438522 629.525232,45.3590269 C612.705055,47.6742017 599.430528,60.8018433 596.938453,77.5852249 C587.64222,74.7693342 577.557041,77.6465478 571.14967,84.9425397 C564.742299,92.2385317 563.196879,102.604934 567.197879,111.450439 C571.19888,120.295943 580.00688,125.985817 589.720791,126 L670.742251,126 C686.900859,126 700,112.91 700,96.7626666 C700,80.6153332 686.900859,67.5253332 670.742251,67.5253332 C670.364151,67.5253332 669.995053,67.5680646 669.616953,67.5815588 Z" id="Path" fill="#D3DDFF"></path>
                            <path d="M738.616953,99.5815588 C731.677144,84.0964073 715.345409,75.0438522 698.525232,77.3590269 C681.705055,79.6742017 668.430528,92.8018433 665.938453,109.585225 C656.64222,106.769334 646.557041,109.646548 640.14967,116.94254 C633.742299,124.238532 632.196879,134.604934 636.197879,143.450439 C640.19888,152.295943 649.00688,157.985817 658.720791,158 L739.742251,158 C755.900859,158 769,144.91 769,128.762667 C769,112.615333 755.900859,99.5253332 739.742251,99.5253332 C739.364151,99.5253332 738.995053,99.5680646 738.616953,99.5815588 Z" id="Path" fill="#C6C1F7"></path>
                            <path d="M911.270574,65.5792743 C902.017496,44.3588815 880.241848,31.9535282 857.814946,35.1261751 C835.388044,38.298822 817.688674,56.2885531 814.365907,79.2880019 C801.97093,75.4291887 788.524025,79.372037 779.980864,89.3702482 C771.437702,99.3684594 769.377142,113.57427 774.71181,125.695887 C780.046477,137.817505 791.790477,145.61474 804.742358,145.634175 L912.770971,145.634175 C934.315783,145.634175 951.781304,127.696027 951.781304,105.5682 C951.781304,83.4403726 934.315783,65.5022244 912.770971,65.5022244 C912.266838,65.5022244 911.774707,65.5607823 911.270574,65.5792743 Z" id="Path" fill="#D3DDFF" transform="translate(861.781304, 90.134175) rotate(-3.000000) translate(-861.781304, -90.134175) "></path>
                            <path d="M1028.39451,58.6802456 C1018.47316,37.4598528 995.124822,25.0544995 971.0782,28.2271464 C947.031577,31.3997933 928.053919,49.3895243 924.491174,72.3889732 C911.201004,68.53016 896.782934,72.4730083 887.622766,82.4712195 C878.462599,92.4694306 876.25322,106.675242 881.97317,118.796859 C887.693119,130.918476 900.285297,138.715711 914.172591,138.735147 L1030.00327,138.735147 C1053.1041,138.735147 1071.83102,120.796998 1071.83102,98.6691711 C1071.83102,76.5413439 1053.1041,58.6031956 1030.00327,58.6031956 C1029.46273,58.6031956 1028.93505,58.6617536 1028.39451,58.6802456 Z" id="Path" fill="#D3DDFF" transform="translate(975.331016, 83.235147) rotate(-3.000000) translate(-975.331016, -83.235147) "></path>
                        </g>
                        <path d="M592.989263,454.912603 C586.049454,439.427452 569.717719,430.374897 552.897542,432.690071 C536.077366,435.005246 522.802838,448.132888 520.310763,464.916269 C511.01453,462.100379 500.929351,464.977592 494.52198,472.273584 C488.114609,479.569576 486.569189,489.935979 490.57019,498.781483 C494.571191,507.626988 503.37919,513.316862 513.093101,513.331045 L594.114561,513.331045 C610.27317,513.331045 623.37231,500.241044 623.37231,484.093711 C623.37231,467.946378 610.27317,454.856378 594.114561,454.856378 C593.736461,454.856378 593.367363,454.899109 592.989263,454.912603 Z" id="Path" fill="#F7F9FC" transform="translate(555.872310, 472.831045) rotate(2.000000) translate(-555.872310, -472.831045) "></path>
                        <path d="M943.989263,464.912603 C937.049454,449.427452 920.717719,440.374897 903.897542,442.690071 C887.077366,445.005246 873.802838,458.132888 871.310763,474.916269 C862.01453,472.100379 851.929351,474.977592 845.52198,482.273584 C839.114609,489.569576 837.569189,499.935979 841.57019,508.781483 C845.571191,517.626988 854.37919,523.316862 864.093101,523.331045 L945.114561,523.331045 C961.27317,523.331045 974.37231,510.241044 974.37231,494.093711 C974.37231,477.946378 961.27317,464.856378 945.114561,464.856378 C944.736461,464.856378 944.367363,464.899109 943.989263,464.912603 Z" id="Path" fill="#F7F9FC" transform="translate(906.872310, 482.831045) rotate(2.000000) translate(-906.872310, -482.831045) "></path>
                        <path d="M1025.90201,452.305004 C1018.96221,435.863979 1002.63047,426.252624 985.810294,428.710711 C968.990117,431.168797 955.715589,445.106787 953.223514,462.92618 C943.927281,459.936469 933.842102,462.991288 927.434732,470.73765 C921.027361,478.484012 919.48194,489.490316 923.482941,498.881839 C927.483942,508.273362 936.291942,514.314463 946.005853,514.329522 L1027.02731,514.329522 C1043.18592,514.329522 1056.28506,500.431497 1056.28506,483.287415 C1056.28506,466.143332 1043.18592,452.245307 1027.02731,452.245307 C1026.64921,452.245307 1026.28011,452.290677 1025.90201,452.305004 Z" id="Path" fill="#F7F9FC" transform="translate(988.785062, 471.329522) rotate(2.000000) translate(-988.785062, -471.329522) "></path>
                        <path d="M1115.98926,420.912603 C1109.04945,405.427452 1092.71772,396.374897 1075.89754,398.690071 C1059.07737,401.005246 1045.80284,414.132888 1043.31076,430.916269 C1034.01453,428.100379 1023.92935,430.977592 1017.52198,438.273584 C1011.11461,445.569576 1009.56919,455.935979 1013.57019,464.781483 C1017.57119,473.626988 1026.37919,479.316862 1036.0931,479.331045 L1117.11456,479.331045 C1133.27317,479.331045 1146.37231,466.241044 1146.37231,450.093711 C1146.37231,433.946378 1133.27317,420.856378 1117.11456,420.856378 C1116.73646,420.856378 1116.36736,420.899109 1115.98926,420.912603 Z" id="Path" fill="#F7F9FC" transform="translate(1078.872310, 438.831045) rotate(2.000000) translate(-1078.872310, -438.831045) "></path>
                        <path d="M1134.98926,365.912603 C1128.04945,350.427452 1111.71772,341.374897 1094.89754,343.690071 C1078.07737,346.005246 1064.80284,359.132888 1062.31076,375.916269 C1053.01453,373.100379 1042.92935,375.977592 1036.52198,383.273584 C1030.11461,390.569576 1028.56919,400.935979 1032.57019,409.781483 C1036.57119,418.626988 1045.37919,424.316862 1055.0931,424.331045 L1136.11456,424.331045 C1152.27317,424.331045 1165.37231,411.241044 1165.37231,395.093711 C1165.37231,378.946378 1152.27317,365.856378 1136.11456,365.856378 C1135.73646,365.856378 1135.36736,365.899109 1134.98926,365.912603 Z" id="Path" fill="#F7F9FC" transform="translate(1097.872310, 383.831045) rotate(2.000000) translate(-1097.872310, -383.831045) "></path>
                        <path d="M1195.98926,427.912603 C1189.04945,412.427452 1172.71772,403.374897 1155.89754,405.690071 C1139.07737,408.005246 1125.80284,421.132888 1123.31076,437.916269 C1114.01453,435.100379 1103.92935,437.977592 1097.52198,445.273584 C1091.11461,452.569576 1089.56919,462.935979 1093.57019,471.781483 C1097.57119,480.626988 1106.37919,486.316862 1116.0931,486.331045 L1197.11456,486.331045 C1213.27317,486.331045 1226.37231,473.241044 1226.37231,457.093711 C1226.37231,440.946378 1213.27317,427.856378 1197.11456,427.856378 C1196.73646,427.856378 1196.36736,427.899109 1195.98926,427.912603 Z" id="Path" fill="#F7F9FC" transform="translate(1158.872310, 445.831045) rotate(2.000000) translate(-1158.872310, -445.831045) "></path>
                        <path d="M1313.98926,446.912603 C1307.04945,431.427452 1290.71772,422.374897 1273.89754,424.690071 C1257.07737,427.005246 1243.80284,440.132888 1241.31076,456.916269 C1232.01453,454.100379 1221.92935,456.977592 1215.52198,464.273584 C1209.11461,471.569576 1207.56919,481.935979 1211.57019,490.781483 C1215.57119,499.626988 1224.37919,505.316862 1234.0931,505.331045 L1315.11456,505.331045 C1331.27317,505.331045 1344.37231,492.241044 1344.37231,476.093711 C1344.37231,459.946378 1331.27317,446.856378 1315.11456,446.856378 C1314.73646,446.856378 1314.36736,446.899109 1313.98926,446.912603 Z" id="Path" fill="#F7F9FC" transform="translate(1276.872310, 464.831045) rotate(2.000000) translate(-1276.872310, -464.831045) "></path>
                        <path d="M1412.73388,465.912603 C1405.79408,450.427452 1389.46234,441.374897 1372.64216,443.690071 C1355.82199,446.005246 1342.54746,459.132888 1340.05538,475.916269 C1330.75915,473.100379 1320.67397,475.977592 1314.2666,483.273584 C1307.85923,490.569576 1306.31381,500.935979 1310.31481,509.781483 C1314.31581,518.626988 1323.12381,524.316862 1332.83772,524.331045 L1413.85918,524.331045 C1430.01779,524.331045 1443.11693,511.241044 1443.11693,495.093711 C1443.11693,478.946378 1430.01779,465.856378 1413.85918,465.856378 C1413.48108,465.856378 1413.11198,465.899109 1412.73388,465.912603 Z" id="Path" fill="#F7F9FC" transform="translate(1375.616931, 483.831045) rotate(2.000000) translate(-1375.616931, -483.831045) "></path>
                        <path d="M1481.98926,484.912603 C1475.04945,469.427452 1458.71772,460.374897 1441.89754,462.690071 C1425.07737,465.005246 1411.80284,478.132888 1409.31076,494.916269 C1400.01453,492.100379 1389.92935,494.977592 1383.52198,502.273584 C1377.11461,509.569576 1375.56919,519.935979 1379.57019,528.781483 C1383.57119,537.626988 1392.37919,543.316862 1402.0931,543.331045 L1483.11456,543.331045 C1499.27317,543.331045 1512.37231,530.241044 1512.37231,514.093711 C1512.37231,497.946378 1499.27317,484.856378 1483.11456,484.856378 C1482.73646,484.856378 1482.36736,484.899109 1481.98926,484.912603 Z" id="Path" fill="#F7F9FC" transform="translate(1444.872310, 502.831045) rotate(2.000000) translate(-1444.872310, -502.831045) "></path>
                        <path d="M533.63024,507.931281 C526.690431,492.44613 510.358696,483.393575 493.538519,485.708749 C476.718343,488.023924 463.443815,501.151566 460.95174,517.934947 C451.655507,515.119057 441.570328,517.99627 435.162957,525.292262 C428.755586,532.588254 427.210166,542.954657 431.211167,551.800161 C435.212168,560.645666 444.020167,566.33554 453.734078,566.349722 L534.755538,566.349722 C550.914147,566.349722 564.013287,553.259722 564.013287,537.112389 C564.013287,520.965056 550.914147,507.875056 534.755538,507.875056 C534.377438,507.875056 534.00834,507.917787 533.63024,507.931281 Z" id="Path" fill="#FFFFFF" transform="translate(496.513287, 525.849722) rotate(41.000000) translate(-496.513287, -525.849722) "></path>
                        <path d="M883.313494,491.753428 C876.373686,476.268276 860.04195,467.215721 843.221774,469.530896 C826.401597,471.846071 813.12707,484.973712 810.634995,501.757094 C801.338761,498.941203 791.253583,501.818417 784.846212,509.114409 C778.438841,516.410401 776.89342,526.776803 780.894421,535.622308 C784.895422,544.467812 793.703422,550.157686 803.417333,550.171869 L884.438793,550.171869 C900.597401,550.171869 913.696542,537.081869 913.696542,520.934536 C913.696542,504.787202 900.597401,491.697202 884.438793,491.697202 C884.060692,491.697202 883.691595,491.739934 883.313494,491.753428 Z" id="Path" fill="#FFFFFF" transform="translate(846.196542, 509.671869) rotate(-1.000000) translate(-846.196542, -509.671869) "></path>
                        <path d="M991.313494,497.753428 C984.373686,482.268276 968.04195,473.215721 951.221774,475.530896 C934.401597,477.846071 921.12707,490.973712 918.634995,507.757094 C909.338761,504.941203 899.253583,507.818417 892.846212,515.114409 C886.438841,522.410401 884.89342,532.776803 888.894421,541.622308 C892.895422,550.467812 901.703422,556.157686 911.417333,556.171869 L992.438793,556.171869 C1008.5974,556.171869 1021.69654,543.081869 1021.69654,526.934536 C1021.69654,510.787202 1008.5974,497.697202 992.438793,497.697202 C992.060692,497.697202 991.691595,497.739934 991.313494,497.753428 Z" id="Path" fill="#FFFFFF" transform="translate(954.196542, 515.671869) rotate(-1.000000) translate(-954.196542, -515.671869) "></path>
                        <path d="M958.313494,534.52572 C951.373686,519.040568 935.04195,509.988013 918.221774,512.303188 C901.401597,514.618363 888.12707,527.746004 885.634995,544.529386 C876.338761,541.713495 866.253583,544.590709 859.846212,551.886701 C853.438841,559.182693 851.89342,569.549095 855.894421,578.3946 C859.895422,587.240104 868.703422,592.929978 878.417333,592.944161 L959.438793,592.944161 C975.597401,592.944161 988.696542,579.854161 988.696542,563.706828 C988.696542,547.559494 975.597401,534.469494 959.438793,534.469494 C959.060692,534.469494 958.691595,534.512226 958.313494,534.52572 Z" id="Path" fill="#FFFFFF" transform="translate(921.196542, 552.444161) rotate(-1.000000) translate(-921.196542, -552.444161) "></path>
                        <path d="M875.313494,548.753428 C868.373686,533.268276 852.04195,524.215721 835.221774,526.530896 C818.401597,528.846071 805.12707,541.973712 802.634995,558.757094 C793.338761,555.941203 783.253583,558.818417 776.846212,566.114409 C770.438841,573.410401 768.89342,583.776803 772.894421,592.622308 C776.895422,601.467812 785.703422,607.157686 795.417333,607.171869 L876.438793,607.171869 C892.597401,607.171869 905.696542,594.081869 905.696542,577.934536 C905.696542,561.787202 892.597401,548.697202 876.438793,548.697202 C876.060692,548.697202 875.691595,548.739934 875.313494,548.753428 Z" id="Path" fill="#FFFFFF" transform="translate(838.196542, 566.671869) rotate(-1.000000) translate(-838.196542, -566.671869) "></path>
                        <path d="M773.313494,569.753428 C766.373686,554.268276 750.04195,545.215721 733.221774,547.530896 C716.401597,549.846071 703.12707,562.973712 700.634995,579.757094 C691.338761,576.941203 681.253583,579.818417 674.846212,587.114409 C668.438841,594.410401 666.89342,604.776803 670.894421,613.622308 C674.895422,622.467812 683.703422,628.157686 693.417333,628.171869 L774.438793,628.171869 C790.597401,628.171869 803.696542,615.081869 803.696542,598.934536 C803.696542,582.787202 790.597401,569.697202 774.438793,569.697202 C774.060692,569.697202 773.691595,569.739934 773.313494,569.753428 Z" id="Path" fill="#FFFFFF" transform="translate(736.196542, 587.671869) rotate(-1.000000) translate(-736.196542, -587.671869) "></path>
                        <path d="M687.313494,566.415517 C680.373686,550.930365 664.04195,541.87781 647.221774,544.192985 C630.401597,546.50816 617.12707,559.635801 614.634995,576.419183 C605.338761,573.603292 595.253583,576.480506 588.846212,583.776498 C582.438841,591.07249 580.89342,601.438892 584.894421,610.284397 C588.895422,619.129901 597.703422,624.819775 607.417333,624.833958 L688.438793,624.833958 C704.597401,624.833958 717.696542,611.743958 717.696542,595.596625 C717.696542,579.449291 704.597401,566.359291 688.438793,566.359291 C688.060692,566.359291 687.691595,566.402023 687.313494,566.415517 Z" id="Path" fill="#FFFFFF" transform="translate(650.196542, 584.333958) rotate(-1.000000) translate(-650.196542, -584.333958) "></path>
                        <path d="M608.313494,554.415517 C601.373686,538.930365 585.04195,529.87781 568.221774,532.192985 C551.401597,534.50816 538.12707,547.635801 535.634995,564.419183 C526.338761,561.603292 516.253583,564.480506 509.846212,571.776498 C503.438841,579.07249 501.89342,589.438892 505.894421,598.284397 C509.895422,607.129901 518.703422,612.819775 528.417333,612.833958 L609.438793,612.833958 C625.597401,612.833958 638.696542,599.743958 638.696542,583.596625 C638.696542,567.449291 625.597401,554.359291 609.438793,554.359291 C609.060692,554.359291 608.691595,554.402023 608.313494,554.415517 Z" id="Path" fill="#FFFFFF" transform="translate(571.196542, 572.333958) rotate(-1.000000) translate(-571.196542, -572.333958) "></path>
                        <path d="M653.313494,590.415517 C646.373686,574.930365 630.04195,565.87781 613.221774,568.192985 C596.401597,570.50816 583.12707,583.635801 580.634995,600.419183 C571.338761,597.603292 561.253583,600.480506 554.846212,607.776498 C548.438841,615.07249 546.89342,625.438892 550.894421,634.284397 C554.895422,643.129901 563.703422,648.819775 573.417333,648.833958 L654.438793,648.833958 C670.597401,648.833958 683.696542,635.743958 683.696542,619.596625 C683.696542,603.449291 670.597401,590.359291 654.438793,590.359291 C654.060692,590.359291 653.691595,590.402023 653.313494,590.415517 Z" id="Path" fill="#FFFFFF" transform="translate(616.196542, 608.333958) rotate(-1.000000) translate(-616.196542, -608.333958) "></path>
                        <path d="M730.313494,603.097166 C723.373686,587.612015 707.04195,578.559459 690.221774,580.874634 C673.401597,583.189809 660.12707,596.317451 657.634995,613.100832 C648.338761,610.284941 638.253583,613.162155 631.846212,620.458147 C625.438841,627.754139 623.89342,638.120541 627.894421,646.966046 C631.895422,655.81155 640.703422,661.501425 650.417333,661.515607 L731.438793,661.515607 C747.597401,661.515607 760.696542,648.425607 760.696542,632.278274 C760.696542,616.13094 747.597401,603.04094 731.438793,603.04094 C731.060692,603.04094 730.691595,603.083672 730.313494,603.097166 Z" id="Path" fill="#FFFFFF" transform="translate(693.196542, 621.015607) rotate(-1.000000) translate(-693.196542, -621.015607) "></path>
                        <path d="M821.313494,601.753428 C814.373686,586.268276 798.04195,577.215721 781.221774,579.530896 C764.401597,581.846071 751.12707,594.973712 748.634995,611.757094 C739.338761,608.941203 729.253583,611.818417 722.846212,619.114409 C716.438841,626.410401 714.89342,636.776803 718.894421,645.622308 C722.895422,654.467812 731.703422,660.157686 741.417333,660.171869 L822.438793,660.171869 C838.597401,660.171869 851.696542,647.081869 851.696542,630.934536 C851.696542,614.787202 838.597401,601.697202 822.438793,601.697202 C822.060692,601.697202 821.691595,601.739934 821.313494,601.753428 Z" id="Path" fill="#FFFFFF" transform="translate(784.196542, 619.671869) rotate(-1.000000) translate(-784.196542, -619.671869) "></path>
                        <path d="M821.313494,601.753428 C814.373686,586.268276 798.04195,577.215721 781.221774,579.530896 C764.401597,581.846071 751.12707,594.973712 748.634995,611.757094 C739.338761,608.941203 729.253583,611.818417 722.846212,619.114409 C716.438841,626.410401 714.89342,636.776803 718.894421,645.622308 C722.895422,654.467812 731.703422,660.157686 741.417333,660.171869 L822.438793,660.171869 C838.597401,660.171869 851.696542,647.081869 851.696542,630.934536 C851.696542,614.787202 838.597401,601.697202 822.438793,601.697202 C822.060692,601.697202 821.691595,601.739934 821.313494,601.753428 Z" id="Path" fill="#FFFFFF" transform="translate(784.196542, 619.671869) rotate(-1.000000) translate(-784.196542, -619.671869) "></path>
                        <path d="M931.313494,583.521096 C924.373686,568.035944 908.04195,558.983389 891.221774,561.298564 C874.401597,563.613739 861.12707,576.74138 858.634995,593.524762 C849.338761,590.708871 839.253583,593.586085 832.846212,600.882077 C826.438841,608.178069 824.89342,618.544471 828.894421,627.389976 C832.895422,636.23548 841.703422,641.925354 851.417333,641.939537 L932.438793,641.939537 C948.597401,641.939537 961.696542,628.849537 961.696542,612.702203 C961.696542,596.55487 948.597401,583.46487 932.438793,583.46487 C932.060692,583.46487 931.691595,583.507601 931.313494,583.521096 Z" id="Path" fill="#FFFFFF" transform="translate(894.196542, 601.439537) rotate(-1.000000) translate(-894.196542, -601.439537) "></path>
                        <g id="Group-3" transform="translate(676.000000, 212.000000)">
                            <path d="M31.3758065,0 L73.4989888,0 C76.1211419,2.76543987 80.7402786,32.4807642 87.3563987,89.1459729 C93.9725188,145.811182 99.5203859,203.173386 104,261.232587 L0,272 C3.84604745,213.824051 8.55354711,160.597176 14.122499,112.319376 C19.6914508,64.0415766 25.4425533,26.6017845 31.3758065,0 Z" id="Rectangle" fill="#FCD27B"></path>
                            <path d="M41.4470073,0 L63.9474224,0 C65.3480652,2.7349387 67.8154118,32.1225204 71.3494622,88.1627452 C74.8835126,144.20297 74.8835126,203.155761 71.3494622,265.021118 C54.7895702,266.862014 41.7500905,268.188308 32.2310232,269 L32.2310232,265.021118 C29.2563256,210.139403 29.2563256,158.825884 32.2310232,111.08056 C35.2057208,63.3352357 38.2777155,26.3083825 41.4470073,0 Z" id="Rectangle" fill="#FEE595"></path>
                        </g>
                        <g id="Group-6" transform="translate(690.158019, 242.805684) rotate(-46.000000) translate(-690.158019, -242.805684) translate(646.158019, 199.805684)" fill-rule="nonzero">
                            <path d="M44.0328274,14.4848648 C16.7088664,27.2946958 -1.20111749,51.0554115 0.500952528,85.2213988 L0.591793343,85.3276244 C34.4323876,87.032061 57.9649399,68.9688955 70.6396241,41.3599193 C77.300448,29.3423825 80.5483508,22.2177038 80.3833326,19.9858832 C79.6449321,9.99923995 70.9302982,8.41812146 63.9943639,9.93571419 C62.2687641,10.313278 55.6149186,11.8296615 44.0328274,14.4848648 Z" id="Shape" fill="url(#linearGradient-8)"></path>
                            <path d="M54.5862424,10.491049 C33.8025912,20.7780611 20.1795716,39.859247 21.4742312,67.296449 L21.5433282,67.3817541 C47.2837802,68.7505122 65.1835407,54.2447783 74.824391,32.0732235 C79.8908687,22.4224682 82.361348,16.700952 82.2358288,14.908675 C81.6741731,6.88884097 75.0454888,5.61911424 69.7697516,6.83782622 C68.4571943,7.14103111 63.3960246,8.35877205 54.5862424,10.491049 Z" id="Shape" fill="url(#linearGradient-9)" transform="translate(51.814849, 36.954809) rotate(2.000000) translate(-51.814849, -36.954809) "></path>
                            <path d="M63.4790231,4.81565412 C45.8928567,13.3881641 34.3656862,29.2891524 35.4611674,52.1534875 L35.5196341,52.224575 C57.3000166,53.3652068 72.4459678,41.2770952 80.6036103,22.8007995 C84.8906299,14.7585034 86.9810355,9.9905733 86.874827,8.49700913 C86.3995798,1.81381407 80.7906931,0.755708465 76.3266078,1.77130179 C75.2159823,2.02397253 70.9334541,3.03875664 63.4790231,4.81565412 Z" id="Shape" fill="url(#linearGradient-10)" transform="translate(61.133998, 26.868787) rotate(2.000000) translate(-61.133998, -26.868787) "></path>
                        </g>
                        <g id="Group-6" transform="translate(767.977282, 244.276201) rotate(-46.000000) translate(-767.977282, -244.276201) translate(723.977282, 201.276201)" fill-rule="nonzero">
                            <path d="M43.7274858,14.2042046 C16.4035248,27.0140356 -1.50645912,50.7747513 0.195610898,84.9407386 L0.286451713,85.0469642 C34.127046,86.7514008 57.6595982,68.6882353 70.3342825,41.0792591 C76.9951064,29.0617223 80.2430092,21.9370436 80.077991,19.705223 C79.3395904,9.71857975 70.6249566,8.13746126 63.6890223,9.65505399 C61.9634225,10.0326178 55.309577,11.5490013 43.7274858,14.2042046 Z" id="Shape" fill="url(#linearGradient-8)"></path>
                            <path d="M54.2809008,10.2103888 C33.4972496,20.4974009 19.8742299,39.5785868 21.1688896,67.0157888 L21.2379866,67.1010939 C46.9784386,68.469852 64.8781991,53.9641181 74.5190494,31.7925633 C79.5855271,22.141808 82.0560064,16.4202918 81.9304872,14.6280148 C81.3688314,6.60818077 74.7401472,5.33845404 69.46441,6.55716602 C68.1518526,6.86037091 63.0906829,8.07811185 54.2809008,10.2103888 Z" id="Shape" fill="url(#linearGradient-9)" transform="translate(51.509507, 36.674148) rotate(2.000000) translate(-51.509507, -36.674148) "></path>
                            <path d="M63.1736815,4.53499392 C45.5875151,13.1075039 34.0603446,29.0084922 35.1558258,51.8728273 L35.2142925,51.9439148 C56.994675,53.0845466 72.1406262,40.996435 80.2982687,22.5201393 C84.5852883,14.4778432 86.6756939,9.7099131 86.5694853,8.21634893 C86.0942382,1.53315387 80.4853515,0.475048265 76.0212661,1.49064159 C74.9106407,1.74331233 70.6281125,2.75809644 63.1736815,4.53499392 Z" id="Shape" fill="url(#linearGradient-10)" transform="translate(60.828656, 26.588127) rotate(2.000000) translate(-60.828656, -26.588127) "></path>
                        </g>
                        <g id="Orion_spacecraft" transform="translate(666.000000, 0.000000)">
                            <path d="M100,191.964286 L100,68.4621429 C100,26.3682143 61.5,0 61.5,0 C61.5,0 23,26.3682143 23,68.4621429 L23,191.964286 C35.7577777,191.964286 46.1,202.277726 46.1,215 L76.9,215 C76.9,202.277726 87.2422223,191.964286 100,191.964286 Z" id="Path" fill="#E6EBF0"></path>
                            <path d="M46.125,230 L46.125,214.8 C46.1249997,202.207908 35.7995669,192 23.0625,192 C10.3254331,192 2.68413615e-07,202.207908 0,214.8 L0,230 L46.125,230 Z" id="Path" fill="#0038FF" fill-rule="nonzero"></path>
                            <path d="M123,230 L123,214.8 C123,202.207908 112.674567,192 99.9375,192 C87.200433,192 76.875,202.207908 76.875,214.8 L76.875,230 L123,230 Z" id="Path" fill="#0038FF" fill-rule="nonzero"></path>
                            <path d="M23,191.9375 L23,92 L17.9465714,92.0000007 C16.6726983,91.998981 15.4508505,93.1822446 14.5499321,95.2893791 C13.6490137,97.3965135 13.1428571,100.254834 13.1428571,103.235282 L13.1428571,150.129032 C13.1431315,155.625578 11.4386749,160.310392 9.1195,161.1875 L4.80371429,161.1875 C2.15171295,161.18962 0.00181317958,166.217964 0,172.422781 L0,215 L13.1428571,215 C13.1428571,202.262933 17.5560503,191.9375 23,191.9375 Z M118.196286,161.1875 L113.8805,161.1875 C111.561939,160.310624 109.857675,155.627967 109.857143,150.132875 L109.857143,103.239126 C109.857579,100.258012 109.351615,97.3987036 108.450649,95.2907377 C107.549683,93.1827717 106.327586,91.9989806 105.053429,92.0000007 L100,92 L100,191.9375 C105.44395,191.9375 109.857143,202.262933 109.857143,215 L123,215 L123,172.422781 C122.998187,166.217964 120.848287,161.18962 118.196286,161.1875 Z" id="Shape" fill="#6869D3" fill-rule="nonzero"></path>
                            <path d="M0,214.666667 L0,230 L23.0769231,230 L23.0769231,191.666667 C16.0347592,193.940504 15.6881771,198.633248 13.8973367,205.71987 C13.3991766,207.691164 12.8941377,212.79476 13.2070012,213.79476 C13.2337616,213.880294 13.1302051,214.631547 13.1252024,214.701724 C13.1189824,214.788976 13.2070012,214.195748 13.2070012,214.320103 C13.2070012,215.023053 12.9607152,215.009263 12.4253158,215 C11.8163857,214.989464 10.863038,214.932 10,215 C7.09002899,215.22928 3.4288009,214.966615 0,214.666667 Z M100,191.666667 C87.2549673,191.666667 76.9230769,201.964117 76.9230769,214.666667 L76.9230769,230 L100,230 L100,191.666667 Z M61.5384615,0 C61.5384615,0 23.0769231,26.3273333 23.0769231,68.356 L23.0769231,191.666667 C35.8219558,191.666667 46.1538462,201.964117 46.1538462,214.666667 L61.5384615,214.666667 L61.5384615,0 Z" id="Shape" fill="#000064" fill-rule="nonzero" opacity="0.15"></path>
                            <g id="Group-4" transform="translate(39.000000, 43.000000)" fill="#6869D3">
                                <circle id="Oval" cx="22" cy="22" r="22"></circle>
                            </g>
                        </g>
                        <g id="Oval" opacity="0.405761719" filter="url(#filter-12)">
                            <use fill="black" fill-opacity="1" filter="url(#filter-13)" xlink:href="#path-11"></use>
                            <use fill="#FFFFFF" fill-rule="evenodd" xlink:href="#path-11"></use>
                        </g>
                        <path d="M858.989263,446.912603 C852.049454,431.427452 835.717719,422.374897 818.897542,424.690071 C802.077366,427.005246 788.802838,440.132888 786.310763,456.916269 C777.01453,454.100379 766.929351,456.977592 760.52198,464.273584 C754.114609,471.569576 752.569189,481.935979 756.57019,490.781483 C760.571191,499.626988 769.37919,505.316862 779.093101,505.331045 L860.114561,505.331045 C876.27317,505.331045 889.37231,492.241044 889.37231,476.093711 C889.37231,459.946378 876.27317,446.856378 860.114561,446.856378 C859.736461,446.856378 859.367363,446.899109 858.989263,446.912603 Z" id="Path" fill="#F7F9FC" transform="translate(821.872310, 464.831045) rotate(2.000000) translate(-821.872310, -464.831045) "></path>
                        <path d="M773.989263,468.912603 C767.049454,453.427452 750.717719,444.374897 733.897542,446.690071 C717.077366,449.005246 703.802838,462.132888 701.310763,478.916269 C692.01453,476.100379 681.929351,478.977592 675.52198,486.273584 C669.114609,493.569576 667.569189,503.935979 671.57019,512.781483 C675.571191,521.626988 684.37919,527.316862 694.093101,527.331045 L775.114561,527.331045 C791.27317,527.331045 804.37231,514.241044 804.37231,498.093711 C804.37231,481.946378 791.27317,468.856378 775.114561,468.856378 C774.736461,468.856378 774.367363,468.899109 773.989263,468.912603 Z" id="Path" fill="#F7F9FC" transform="translate(736.872310, 486.831045) rotate(2.000000) translate(-736.872310, -486.831045) "></path>
                        <path d="M808.313494,512.753428 C801.373686,497.268276 785.04195,488.215721 768.221774,490.530896 C751.401597,492.846071 738.12707,505.973712 735.634995,522.757094 C726.338761,519.941203 716.253583,522.818417 709.846212,530.114409 C703.438841,537.410401 701.89342,547.776803 705.894421,556.622308 C709.895422,565.467812 718.703422,571.157686 728.417333,571.171869 L809.438793,571.171869 C825.597401,571.171869 838.696542,558.081869 838.696542,541.934536 C838.696542,525.787202 825.597401,512.697202 809.438793,512.697202 C809.060692,512.697202 808.691595,512.739934 808.313494,512.753428 Z" id="Path" fill="#FFFFFF" transform="translate(771.196542, 530.671869) rotate(-1.000000) translate(-771.196542, -530.671869) "></path>
                        <path d="M670.989263,478.912603 C664.049454,463.427452 647.717719,454.374897 630.897542,456.690071 C614.077366,459.005246 600.802838,472.132888 598.310763,488.916269 C589.01453,486.100379 578.929351,488.977592 572.52198,496.273584 C566.114609,503.569576 564.569189,513.935979 568.57019,522.781483 C572.571191,531.626988 581.37919,537.316862 591.093101,537.331045 L672.114561,537.331045 C688.27317,537.331045 701.37231,524.241044 701.37231,508.093711 C701.37231,491.946378 688.27317,478.856378 672.114561,478.856378 C671.736461,478.856378 671.367363,478.899109 670.989263,478.912603 Z" id="Path" fill="#F7F9FC" transform="translate(633.872310, 496.831045) rotate(2.000000) translate(-633.872310, -496.831045) "></path>
                        <path d="M707.313494,518.753428 C700.373686,503.268276 684.04195,494.215721 667.221774,496.530896 C650.401597,498.846071 637.12707,511.973712 634.634995,528.757094 C625.338761,525.941203 615.253583,528.818417 608.846212,536.114409 C602.438841,543.410401 600.89342,553.776803 604.894421,562.622308 C608.895422,571.467812 617.703422,577.157686 627.417333,577.171869 L708.438793,577.171869 C724.597401,577.171869 737.696542,564.081869 737.696542,547.934536 C737.696542,531.787202 724.597401,518.697202 708.438793,518.697202 C708.060692,518.697202 707.691595,518.739934 707.313494,518.753428 Z" id="Path" fill="#FFFFFF" transform="translate(670.196542, 536.671869) rotate(-1.000000) translate(-670.196542, -536.671869) "></path>
                        <path d="M599.313494,506.753428 C592.373686,491.268276 576.04195,482.215721 559.221774,484.530896 C542.401597,486.846071 529.12707,499.973712 526.634995,516.757094 C517.338761,513.941203 507.253583,516.818417 500.846212,524.114409 C494.438841,531.410401 492.89342,541.776803 496.894421,550.622308 C500.895422,559.467812 509.703422,565.157686 519.417333,565.171869 L600.438793,565.171869 C616.597401,565.171869 629.696542,552.081869 629.696542,535.934536 C629.696542,519.787202 616.597401,506.697202 600.438793,506.697202 C600.060692,506.697202 599.691595,506.739934 599.313494,506.753428 Z" id="Path" fill="#FFFFFF" transform="translate(562.196542, 524.671869) rotate(-1.000000) translate(-562.196542, -524.671869) "></path>
                    </g>
                </g>
            </g>
        </g>
    </g>
</svg>