<?xml version="1.0" encoding="UTF-8"?>
<svg width="1440px" height="972px" viewBox="0 0 1440 972" version="1.1" xmlns="http://www.w3.org/2000/svg" xmlns:xlink="http://www.w3.org/1999/xlink">
    <!-- Generator: Sketch 53.2 (72643) - https://sketchapp.com -->
    <title>Group 11</title>
    <desc>Created with Sketch.</desc>
    <defs>
        <path d="M469.016411,352.715508 L963.331546,374.688315 C1140.01797,382.542211 1276.88377,532.141695 1269.02987,708.828115 C1267.69296,738.904133 1262.1216,768.641376 1252.48035,797.161552 C1252.48035,797.161552 1252.48035,797.161552 1252.48035,797.161552 C1249.68289,805.436835 1246.63203,816.504551 1243.32777,830.364701 L1243.32776,830.364701 C1177.12651,1108.05457 928.976407,1304 643.504397,1304 C643.504397,1304 643.504397,1304 643.504397,1304 C625.901638,1304 568.237498,1301.50361 470.511975,1296.51082 L470.511975,1296.51081 C206.85991,1283.04086 3.23301771e-14,1065.34271 0,801.346784 L0,801.346784 C-3.03733075e-14,553.329907 201.057404,352.272503 449.074282,352.272503 C455.724118,352.272503 462.373134,352.420208 469.016411,352.715508 Z" id="path-1"></path>
        <filter x="-0.3%" y="0.1%" width="100.6%" height="101.8%" filterUnits="objectBoundingBox" id="filter-2">
            <feGaussianBlur stdDeviation="0" in="SourceGraphic"></feGaussianBlur>
        </filter>
        <filter x="-1.0%" y="-0.8%" width="102.0%" height="103.6%" filterUnits="objectBoundingBox" id="filter-3">
            <feOffset dx="0" dy="14" in="SourceAlpha" result="shadowOffsetOuter1"></feOffset>
            <feGaussianBlur stdDeviation="2" in="shadowOffsetOuter1" result="shadowBlurOuter1"></feGaussianBlur>
            <feColorMatrix values="0 0 0 0 0.908955793   0 0 0 0 0.927923336   0 0 0 0 1  0 0 0 0.7 0" type="matrix" in="shadowBlurOuter1"></feColorMatrix>
        </filter>
    </defs>
    <g id="Website" stroke="none" stroke-width="1" fill="none" fill-rule="evenodd">
        <g id="Landing">
            <g id="Group-11" transform="translate(-176.000000, -408.000000)">
                <path d="M176,408 L1616.01981,408 L1616.01981,1380 C1650.3889,1300.18736 1657.05566,1254.02311 1636.02008,1241.50727 C1598.57675,1219.22906 1463.8657,1260.93976 1439.01737,1260.93976 C1381.01657,1260.93976 1332.29641,1252.23421 1270.01505,1242.48317 C1207.74032,1232.73316 961.453786,1137.9759 896.009903,1137.9759 C629.784019,1137.9759 389.780718,1218.6506 176,1380 L176,408 Z" id="Rectangle" fill="#E7ECFF"></path>
                <g id="Rectangle" filter="url(#filter-2)">
                    <use fill="black" fill-opacity="1" filter="url(#filter-3)" xlink:href="#path-1"></use>
                    <use fill="#FFFFFF" fill-rule="evenodd" xlink:href="#path-1"></use>
                </g>
                <path d="M1304.5,0 L1556.5,-2.27373675e-13 C1736.26869,-2.60396647e-13 1882,145.731314 1882,325.5 L1882,325.5 C1882,509.265955 1738.19869,660.901059 1554.69097,670.639696 C1512.47844,672.879904 1485.91478,674 1475,674 C1459.35483,674 1402.65195,671.698633 1304.89136,667.0959 L1304.89136,667.09587 C1122.47916,658.507597 979,508.114263 979,325.5 L979,325.5 C979,145.731314 1124.73131,-2.3820447e-14 1304.5,-5.68434189e-14 Z" id="Rectangle" fill="#4A65C5"></path>
                <path d="M1642,915 C1642,915 1642,915 1642,915 C1687.94824,915 1738.94824,955.656392 1795,1036.96918 L1795,1200.16087 C1795,1206.42877 1789.91887,1211.5099 1783.65097,1211.5099 C1779.21345,1211.5099 1775.18298,1208.92358 1773.33402,1204.8896 C1767.61005,1192.4011 1760.83202,1180.74976 1753,1169.93557 C1735.99685,1146.4582 1685.94622,1209.12348 1594,1243.91688 C1555.83367,1258.35941 1463.6854,1261.25629 1438,1261.91233 C1435.38458,1261.97913 1414.55999,1262.00776 1375.52622,1261.99821 L1375.52622,1261.99821 C1304.96702,1261.98095 1234.79788,1251.53406 1167.29381,1230.99625 C1167.09794,1230.93665 1167,1230.91129 1167,1230.92016 C1167,1230.9206 1167.00013,1230.92052 1167.00038,1230.91992 L1167.00036,1230.91992 C1247.23218,1039.5385 1434.48134,915 1642,915 Z" id="Rectangle" fill="#85E3D4"></path>
            </g>
        </g>
    </g>
</svg>